<mxfile host="app.diagrams.net" modified="2021-05-20T10:30:00.018Z" agent="5.0 (Windows)" etag="h6XWXlGF7rm7jmpw4KM9" version="14.6.13" type="github">
  <diagram id="NwPsty5B1OMA8tNjgmni" name="Page-1">
    <mxGraphModel dx="782" dy="432" grid="1" gridSize="10" guides="1" tooltips="1" connect="1" arrows="1" fold="1" page="1" pageScale="1" pageWidth="850" pageHeight="1100" math="0" shadow="1">
      <root>
        <mxCell id="0" />
        <mxCell id="1" parent="0" />
        <mxCell id="-C5w6Y-mffG2xFxrbDee-1" value="Developer" style="shape=umlActor;verticalLabelPosition=bottom;verticalAlign=top;html=1;outlineConnect=0;" parent="1" vertex="1">
          <mxGeometry x="60" y="300" width="30" height="60" as="geometry" />
        </mxCell>
        <mxCell id="-C5w6Y-mffG2xFxrbDee-2" value="" style="shape=image;html=1;verticalAlign=top;verticalLabelPosition=bottom;labelBackgroundColor=#ffffff;imageAspect=0;aspect=fixed;image=https://cdn4.iconfinder.com/data/icons/ionicons/512/icon-social-github-128.png" parent="1" vertex="1">
          <mxGeometry x="60" y="180" width="60" height="60" as="geometry" />
        </mxCell>
        <mxCell id="-C5w6Y-mffG2xFxrbDee-3" value="" style="shape=image;html=1;verticalAlign=top;verticalLabelPosition=bottom;labelBackgroundColor=#ffffff;imageAspect=0;aspect=fixed;image=https://cdn4.iconfinder.com/data/icons/logos-brands-5/24/jenkins-128.png" parent="1" vertex="1">
          <mxGeometry x="160" y="120" width="60" height="60" as="geometry" />
        </mxCell>
        <mxCell id="-C5w6Y-mffG2xFxrbDee-4" value="" style="aspect=fixed;html=1;points=[];align=center;image;fontSize=12;image=img/lib/mscae/Docker.svg;" parent="1" vertex="1">
          <mxGeometry x="290" y="79" width="50" height="41" as="geometry" />
        </mxCell>
        <mxCell id="-C5w6Y-mffG2xFxrbDee-7" value="Ansible Server" style="rounded=0;whiteSpace=wrap;html=1;" parent="1" vertex="1">
          <mxGeometry x="260" y="130" width="120" height="60" as="geometry" />
        </mxCell>
        <mxCell id="-C5w6Y-mffG2xFxrbDee-8" value="K8S" style="html=1;dashed=0;whitespace=wrap;fillColor=#2875E2;strokeColor=#ffffff;points=[[0.005,0.63,0],[0.1,0.2,0],[0.9,0.2,0],[0.5,0,0],[0.995,0.63,0],[0.72,0.99,0],[0.5,1,0],[0.28,0.99,0]];shape=mxgraph.kubernetes.icon;prIcon=api" parent="1" vertex="1">
          <mxGeometry x="594" y="200" width="100" height="94" as="geometry" />
        </mxCell>
        <mxCell id="-C5w6Y-mffG2xFxrbDee-10" value="" style="shape=image;html=1;verticalAlign=top;verticalLabelPosition=bottom;labelBackgroundColor=#ffffff;imageAspect=0;aspect=fixed;image=https://cdn0.iconfinder.com/data/icons/logos-21/40/Docker-128.png" parent="1" vertex="1">
          <mxGeometry x="580" y="20" width="128" height="128" as="geometry" />
        </mxCell>
        <mxCell id="-C5w6Y-mffG2xFxrbDee-11" value="" style="rounded=1;arcSize=10;dashed=1;fillColor=none;gradientColor=none;dashPattern=1 1;strokeWidth=2;" parent="1" vertex="1">
          <mxGeometry x="30" y="40" width="720" height="360" as="geometry" />
        </mxCell>
        <mxCell id="-C5w6Y-mffG2xFxrbDee-12" value="" style="outlineConnect=0;dashed=0;verticalLabelPosition=bottom;verticalAlign=top;align=center;html=1;shape=mxgraph.aws3.ec2;fillColor=#F58534;gradientColor=none;" parent="1" vertex="1">
          <mxGeometry x="169" y="190" width="51" height="53" as="geometry" />
        </mxCell>
        <mxCell id="-C5w6Y-mffG2xFxrbDee-13" value="" style="outlineConnect=0;dashed=0;verticalLabelPosition=bottom;verticalAlign=top;align=center;html=1;shape=mxgraph.aws3.ec2;fillColor=#F58534;gradientColor=none;" parent="1" vertex="1">
          <mxGeometry x="294.5" y="190" width="51" height="63" as="geometry" />
        </mxCell>
        <mxCell id="-C5w6Y-mffG2xFxrbDee-15" value="" style="outlineConnect=0;dashed=0;verticalLabelPosition=bottom;verticalAlign=top;align=center;html=1;shape=mxgraph.aws3.ec2;fillColor=#F58534;gradientColor=none;" parent="1" vertex="1">
          <mxGeometry x="64.5" y="230" width="51" height="53" as="geometry" />
        </mxCell>
        <mxCell id="-C5w6Y-mffG2xFxrbDee-16" value="AWS Cluster: 1 Master, 2 worker Nodes" style="text;html=1;strokeColor=none;fillColor=none;align=center;verticalAlign=middle;whiteSpace=wrap;rounded=0;" parent="1" vertex="1">
          <mxGeometry x="598" y="300" width="96" height="40" as="geometry" />
        </mxCell>
        <mxCell id="-C5w6Y-mffG2xFxrbDee-17" value="" style="outlineConnect=0;dashed=0;verticalLabelPosition=bottom;verticalAlign=top;align=center;html=1;shape=mxgraph.aws3.ec2;fillColor=#F58534;gradientColor=none;" parent="1" vertex="1">
          <mxGeometry x="694" y="270" width="51" height="53" as="geometry" />
        </mxCell>
        <mxCell id="-C5w6Y-mffG2xFxrbDee-19" value="" style="outlineConnect=0;dashed=0;verticalLabelPosition=bottom;verticalAlign=top;align=center;html=1;shape=mxgraph.aws3.virtual_private_cloud;fillColor=#F58534;gradientColor=none;" parent="1" vertex="1">
          <mxGeometry x="20" y="20" width="79.5" height="54" as="geometry" />
        </mxCell>
        <mxCell id="-C5w6Y-mffG2xFxrbDee-20" value="" style="rounded=1;arcSize=10;dashed=1;strokeColor=#F59D56;fillColor=none;gradientColor=none;dashPattern=8 4;strokeWidth=2;labelBackgroundColor=#3333FF;" parent="1" vertex="1">
          <mxGeometry x="50" y="51.5" width="690" height="328.5" as="geometry" />
        </mxCell>
        <mxCell id="-C5w6Y-mffG2xFxrbDee-22" value="Region : Mumbai : ap-south-1" style="text;html=1;strokeColor=none;fillColor=none;align=center;verticalAlign=middle;whiteSpace=wrap;rounded=0;labelBackgroundColor=#FFFF66;" parent="1" vertex="1">
          <mxGeometry x="302.5" y="390" width="185" as="geometry" />
        </mxCell>
        <mxCell id="-C5w6Y-mffG2xFxrbDee-24" value="" style="edgeStyle=elbowEdgeStyle;elbow=vertical;endArrow=classic;html=1;" parent="1" edge="1">
          <mxGeometry width="50" height="50" relative="1" as="geometry">
            <mxPoint x="70" y="300" as="sourcePoint" />
            <mxPoint x="80" y="275" as="targetPoint" />
            <Array as="points">
              <mxPoint x="130" y="300" />
            </Array>
          </mxGeometry>
        </mxCell>
        <mxCell id="-C5w6Y-mffG2xFxrbDee-25" value="" style="edgeStyle=elbowEdgeStyle;elbow=vertical;endArrow=classic;html=1;" parent="1" edge="1">
          <mxGeometry width="50" height="50" relative="1" as="geometry">
            <mxPoint x="90" y="210" as="sourcePoint" />
            <mxPoint x="170" y="180" as="targetPoint" />
          </mxGeometry>
        </mxCell>
        <mxCell id="-C5w6Y-mffG2xFxrbDee-26" value="" style="endArrow=classic;html=1;" parent="1" edge="1">
          <mxGeometry width="50" height="50" relative="1" as="geometry">
            <mxPoint x="190" y="149.5" as="sourcePoint" />
            <mxPoint x="260" y="149.5" as="targetPoint" />
          </mxGeometry>
        </mxCell>
        <mxCell id="-C5w6Y-mffG2xFxrbDee-27" value="" style="endArrow=classic;html=1;" parent="1" edge="1">
          <mxGeometry width="50" height="50" relative="1" as="geometry">
            <mxPoint x="380" y="161" as="sourcePoint" />
            <mxPoint x="610" y="240" as="targetPoint" />
          </mxGeometry>
        </mxCell>
        <mxCell id="-C5w6Y-mffG2xFxrbDee-28" value="" style="endArrow=classic;html=1;" parent="1" edge="1">
          <mxGeometry width="50" height="50" relative="1" as="geometry">
            <mxPoint x="380" y="159.5" as="sourcePoint" />
            <mxPoint x="610" y="100" as="targetPoint" />
          </mxGeometry>
        </mxCell>
        <mxCell id="-C5w6Y-mffG2xFxrbDee-29" value="Docker Hub" style="text;html=1;strokeColor=none;fillColor=none;align=center;verticalAlign=middle;whiteSpace=wrap;rounded=0;labelBackgroundColor=#FFFF66;" parent="1" vertex="1">
          <mxGeometry x="610" y="120" width="40" height="20" as="geometry" />
        </mxCell>
        <mxCell id="-C5w6Y-mffG2xFxrbDee-30" value="" style="shape=image;verticalLabelPosition=bottom;labelBackgroundColor=#ffffff;verticalAlign=top;aspect=fixed;imageAspect=0;image=data:image/png,iVBORw0KGgoAAAANSUhEUgAAAR8AAADECAYAAACm2SUVAAAgAElEQVR4nOydZ1hUx9vGWXoRVooiKiIqoqjIK4IKKGJvWGKLUWwgNowlscQWSzCJCKJii1gSURE1MREpdlCUjhRBeoelLNvh4/1+yHXOfxcWpCwsS+bD71KRPTszO3PvzDxNqaGhAQQCgdDVKMm7AQQC4b8JER8CgSAXiPgQCAS5QMSHQCDIBSI+BAJBLhDxIRAIcoGID4FAkAtEfAgEglwg4kMgEOQCER8CgSAXiPgQCAS5QMSHQCDIBSI+BAJBLhDxIRAIcoGID6HV1NfXo76+XuLfIpEIIpFI4ucEQmsg4kNoNeLiU19fD6FQCB6PB4FAAJFIJPf2ERQLIj4ENDRI7mKEQiEEAgEEAgH4fD54PB64XC64XC44HA44HA7YbDaqq6tRUVGB6upqsNls+v+o3+XxeODz+fSzhEIhvUsiOyUCEZ//OCKRCFwuFxUVFcjOzkZ8fDwiIiLw4MEDBAUF4cKFCzh58iT27NmDbdu2wcPDA+vXr8eaNWuwcuVKLFmyBCtXrsTatWvh6emJzZs3w8vLC99//z1++eUXXL58GUFBQXj06BFevHiBlJQUFBYWoqam5ovHNUoQiVD1TIj49ECaW6z19fWoqqpCfn4+kpOT8ebNG/z1118IDAyEn58fTpw4ge+//x6bNm3CqlWrsGTJEkyfPh22trawsLDAwIEDYWxsDENDQ/Tu3Rt6enrQ1taGnp4eDAwM0K9fP5iYmGDQoEEYPnw4Jk6ciFmzZmHJkiX45ptvsGXLFvzwww+0KN27dw9hYWH48OEDPn36hJKSEtTW1kq0V3ynJI68x5jQcYj49DCouxhqkVLHKB6Ph9raWiQmJiIkJAQnTpyAm5sb7O3toaenBzU1NSgpKXUZ2traGDRoEGbNmoVvv/0Wly9fRnh4OD59+gQulytxTKP6QEHul3oGRHx6IPX19eDz+SgpKUFMTAzu3r2LI0eOwNXVFdOmTYO9vT2srKwwaNAg6OvrQ01NDcrKyl0qPioqKtDW1kbfvn0xbNgw2NjYwNHREfPnz8fGjRvh6+uLJ0+eIC0tDSwWq8kOSN5jTOg4RHx6EGw2GwUFBYiLi0NISAh8fX2xa9cuLF26FNbW1l0qLu1FQ0MDhoaGmDx5MjZs2IAjR44gMDAQkZGRSEtLQ0VFBXg8ntzHmtBxiPgoONTRSiAQICsrCw8ePMDu3bthZWXV5UepzqJ///6YO3cufH19ER0djfLycvpoKe/xJ7QfIj4KgjSHvvr6euTl5SEsLAze3t5YuXIlJk6ciOHDh0NPT6/Lj1KdhZaWFvr16wdra2tMnToV7u7uuHbtGmJjY8FisSTGg1jHFAciPgqCuPiwWCxkZGQgLCwMZ8+ehYeHB8aPH4/evXvLXSg6EwaDASUlJRgbG2Pu3LnYu3cvbty4gXfv3qGgoAB1dXVEfBQIIj4KhkgkQnJyMvz8/ODg4AADAwO5i0JXCY+qqiotQBRmZmZwd3fHo0ePUFRURIRHgSDiowDU19eDxWIhOjoaPj4+WLFiBcaOHQtDQ0Ooq6vLXRi6eucjjo6ODszNzeHg4IBNmzbhzp07SEtLA4fDkTqORJy6D0R8uhmN46eqqqrw8eNHBAUFYffu3Zg0aRL09fXlLgTdkf79+2Pp0qXw9vbGP//8Qx/FqLGljq3y/owJ/0LEp5shvkBEIhESExPx008/YdSoUWAwGFK//Qn/g8FgQEdHBy4uLggJCUF+fr7UsSXIHyI+3Yz6+nrU1dUhPz8fly5dwpo1azBmzBgwmUwwGAyoqKhARUWlx1iyZC08KioqUFVVRd++feHg4IB9+/bh77//Rk1NDQQCATl2dSOI+MiZxvlxSktL8fr1a/j6+mLGjBno27cvvdsh4tM68REfrzFjxsDd3R23b99GSkoKampqSJxYN4GIjxwRj8NqaGiAUChEREQEPD09oaqqCmVlZSgrK0u18hC+LESqqqp0GMeAAQPw888/Iz09vUm8GBEg+UDER85Q/juZmZm4fv06Vq5ciaFDh0osIiI87RcfajekpaUFa2trbN26FRERESguLqYFiIiPfCDiI0dEIhF4PB6SkpIQEBCABQsWoF+/fkRwZCg+ysrKEmM5ePBgbNmyBQ8fPkReXh65B5IjRHzkCJ/PR1lZGQ4ePAgbGxuoqqpKQASo4+JDHb3Ef66mpoZly5bhzp074HA4RHzkBBEfOVBfXw82m40XL17Ay8sL48aNA5PJpBcHg8Gg73vIxXLHBEh8Fyk+nqampnB1dYW/vz9SU1MlfKuIGHUNRHy6GKFQCDabjefPn2PPnj0YMGAAtLS0pC4eIj6ypfF4GhoawtnZGQEBAcjIyJDIMS3vefJfgIhPF8PhcJCTk4NVq1bByMiIiIscoY5mTk5OOH36NOrq6ojwdCFEfLoI6qgVGRmJTZs2wcLC4j8Vl9WdMTIywowZM3Du3Dmkp6fLfa78VyDi04mI3yPweDy8e/cO+/btQ58+faCpqalwF8o92QpnaGiIqVOn4rfffkNubq5EGAbZDXUORHw6CXEHQoFAgMrKSuzatQvDhw+HsrKyQnopU97V8m5HZ0BZwebNm4erV6/SqVobO4ISZAcRn06CmrQikQhJSUn45ZdfMGHCBDrDYGP/E0Wg8c5HS0sLJiYmMDU1RZ8+fSR+T5H6J34R3b9/fyxZsgQPHz6kg1KJ8HQORHw6CWrHU1hYiGvXrmHixInQ19fvMeESQ4YMwbRp07B+/Xp4enri66+/xsSJEzFgwABoa2tLxFh1dxrv6ExNTbF27Vo8efIE1dXVRHw6CSI+nQifz0dISAi+/vprqKmp9RgHQgaDgT179uDNmzdgsVhgsVjIzc1FVFQU1q5di0GDBsm9jR0RHxUVFWhqamL//v1ITEyEUCiU+1zqiRDxkSHiCcwrKysRExOD9evXw9zcnF60iu67Y2pqiq+//hp///03KioqaKc8Ho+HyspKPHz4EOvXr1cocW3uIt3a2hp79+5FXl4e7QlN/IBkBxEfGSFeIZTP5yM2NhZHjhzB8OHD5b64ZLlIHRwcEBISgoKCAqnjUFpaiitXrqBPnz7Q0NCgXyfvtreXcePGITg4GHl5eeTyWcYQ8ZER4mVtWCwWAgICelyOZTU1NXz11VeorKxstnCfSCTC8+fPMXfuXDpIVpGPmcbGxliwYAHCw8OJ+MgYIj4ygtr58Pl8/PXXX3Bzc6MvXRXN+tMcEyZMwK+//vrFSPBPnz7B398fNjY2Ctl38TZrampiwIABOHbsGJKSkiAQCMjRS0YQ8ZEhPB4PhYWF+O677zBq1CiJyaxI1p/mFuT27dvx4sWLL45DVVUVEhMTsWjRImhra8u97e3pK+WHRX1mM2fOREBAAJ2OleSC7jhEfGRIcXExQkND4ejo2GNKFYsvyIsXL6KiouKL40Dde+3du1ciMZqiQTmDKikpQVNTE/PmzUN2drbUsjyEtkPER0YIBAI8f/4c69atw8CBA+W+cGQhNtQ3v4mJCebPn4/IyEjw+fxWj8m9e/ewbNkyhd3xNbaCjRo1Cr6+vkhNTZX7fOsJEPGRASKRCEVFRfD398fAgQObTZGhSIgfFceNG4eLFy8iKyurTeOSmpqKkydPQktLq0eEZRgZGWH69Ol4+PAhSUImA4j4yAA+n4/Q0FBs2LBBoS07zTFr1iwkJyejqqqqTeNSW1uLO3fuYNCgQQp599MYKhf08ePH8fnzZ3Lv00GI+LQDyp+noeHfXQ+LxcKBAwcwevRoKCkpKZx1pyUsLS2xd+9esFisZo9c1HhQViDq30KhEO/evYO7uzvtaNkTWLZsGYKDgyXcDYgFrO0Q8WkH4p6uNTU1SEpKwqxZs2inOkX3YqZgMBhYtmwZ7t271+J4NC5DIz4++fn5CAkJwaRJk+TeH1lhZWWF7777DmVlZbTbAcmC2HaI+HSQjIwMXLhwAdbW1j1mt0OhrKyMkydPIiMjo8UxaKkGFofDQXFxMVxdXeXeH1mhrq4OFxcXvH37FpWVlbT4UAIk7zmpKBDx6QACgQChoaFwdXWFsbGx3BeFLGEymRgzZgyCg4NRXV0ttf88Hg/l5eVITU1FVlYWvfDEj2FCoRA8Hg/Hjx+nnQ7l3bf2Im4BtLKywunTp/Hx40e6zyT5fNsg4tNOxMMojI2N6SOXotLYrDxkyBB4enriw4cPzY5BRUUF3r17h8DAQDx69EhibBrvBJ4+fQp3d3eFFx/KAti3b18sWLAAoaGhEAgEcp+PiggRn3YiFAqRlJSEffv29QgLV+N7KgcHBzx48KDZANKGhgakp6fD19cXS5cuxd69eyXSxjY+guXm5uL06dM94i5MSUkJqqqq6NWrF86dOwcWi0V2PO2AiE8bEU8hERQUhMWLF8t9IcgC8Z0Pk8nEqlWrkJOTAzabLTWVBJ/Px5MnT+Dk5ITBgwdj6dKlyMrKQm1tLT1O4uPGZrPx119/YdKkSTA0NJR7f2XF7t27ERcXR3L+tAMiPm2EuseoqqrCvn37JGK4FBnxAntjxozBsWPH6D5LE5+ysjL4+/vTr584cSKCg4Pp1KPSSElJweHDh3vMmCkpKWHRokX4448/mo3yJzQPEZ92wOFwkJ2djTlz5ij8XQ+FeF5pDw8PPH36tMUxiIqKwrfffku/3tzcHB4eHnj//n2zr6moqEBUVBSmTZsm9/7KiuHDh2P37t1gs9lyn5eKBhGfdlBSUoKwsDDY29vLffLLCgaDAXV1dTCZTPj6+iInJ4fur7j1isLf3x/Ozs706/X09DBy5EjcvXtXqnWsvr4eHA4HZWVl2Lx5M0xMTCTeW1EdM/X09LB48WLk5uaCy+XKfW4qEkR82kFqairOnDkDKysruU9+WcJkMjF27Fg8fvxYwptZXHy4XC4qKiqwceNGiYoVFMeOHZNaeI96fUNDA86fPw9nZ2dabBQ15QjV3kmTJuHNmzetivgn/A8iPu3g5cuXcHNzw4ABA+S+AGTJyJEjceDAASQmJjZrvSkpKUFERARcXFygqqra5BnNeUSLi8+HDx+wd+9eCcuXIgoPJZjW1tYIDAxsc+Dtfx0iPm1EIBAgJCQEtra2YDKZcl8EssTZ2RlhYWEoKSlptv9JSUk4fPiwxK5P3FI2bNgw7NmzB2w2mza3i8d8NTQ0oLy8HNevX4epqanCBpyKHxWHDBmCPXv2tHjfRWgKEZ82QMVyXbx4EQYGBj0qPzOTyYSbmxvKy8ubtdxQ0fvOzs4SR67GPkKzZs1Ceno6ampqpPr8iEQivHr1CvPnz5e4+1FU+vTpg7lz5yI0NJT4+7QBIj5tQCQSIS8vDydOnICqqqpCljyWBoPBwLRp03DhwoUWE6QXFhbC398fvXr1knrkorCxsUFAQAAyMzObTbqelZWFgIAA2Nrayr3/HUVHRwfDhw8nJvc2QsSnBRrH6ggEAsTFxWH37t30olW0uwppKCsrY9euXYiKimrSb/G/P3/+HFu3bv1i301MTODq6opnz541m2yexWIhLi4O8+fPV/iUs6qqqmAymfD39yfezm2AiE8LNHau4/P5ePr0KdavXy/3CS8r1NXVYWBggGvXrtHWGvHLYcqpks/nw8/PD1OmTKEFq7ldn4aGBoyMjHDt2jWwWCypYysUCsHhcODl5QUTE5MeIeI//vgjcnJySGR7KyHi0wa4XC5u3rzZo9JDDBgwAIsXL8bLly+bDZDkcrkoKyvDypUr0atXrxafR9WiV1VVxd69e/HhwwepOwFK2Kk8zz3h+Lpz507ExsaSQNNWQsSnDXA4HPj4+MDJyUnuE11WjBs3DufOnUNmZmaz/S4rK8OrV6/oXU9LiB/HZs+ejatXr7Z4DPn48SOOHTumcDmepTlGrlu3DqGhoU18pMgxTDpEfNoAm83G/v37e0xskqamJhYuXIiEhIQW8zOnpqbi119/xZgxY9r0/IEDB2L79u2ora1tNvCSzWYjKCgIffv2VahQFfHaXtTPFi1ahNu3b9OezqS2e8sQ8Wkl9fX1qKqqwvr169GvXz+5T35ZLB5LS0scOHAAdXV1zYqDSCRCWFgYnJyc2hyNrq6ujjlz5uDDhw+orKyUeKb4ndL79+/h4eGBIUOGyH1c2jqG4ndfM2fOxMWLF0ldr1ZCxKeVCIVClJeXY+HChQrrGCeOsrIyli9fjuDg4Bb7XVxcjICAABgZGbVrZzJmzBj8/PPPdK0r8VAN6j3y8/Nx7949hczzLH7MdHBwwK+//oq6ujq5z1dFgIhPKxEIBCguLu4REdkqKirQ1taGt7e31Dgsivr6erx9+xY7d+5sdsF9ib59+2LGjBkICwsDn8+Xmuu4rq4OeXl5WL58uUILu7W1NQ4dOkQi3FsJEZ9W0pPER09PD1ZWVrh3716z+ZkbGv4Vn8uXL2PmzJkSwqOiotJqB0s1NTUwmUycO3cORUVFErmOqfsQkUgEHo+HU6dOYfz48Qprdh86dCh27NhBJ1QjtAwRn1bC4/GQm5uLqVOnyn2Sy2KReHp6IiYmpsUMfCKRCBEREdizZw8sLS2hq6tL33NQAtTa99y5cyeio6Ob1PUSv5ANDQ2Fu7u7wprdjY2NsX79etTU1Mh9vioCRHxaCZvNRnp6eqvMzd0ZBoMBR0dH3L9/v8Wsg1RYRFVVFZ49e4atW7fCxsYGenp6UFJqe22yuXPn4urVqxAIBPTRq/ERLD8/H/7+/tDV1W0xfKO7oqenh+XLl7e4myT8DyI+raSmpgaJiYkK7+OjqqpKJ7+qra2VqDQq3l9KfAQCAaqqqpCZmYmLFy/SDpZtDS3p3bs31qxZQ1c+lVZqhsfjITQ0FA4ODgqZ51lbWxuLFy+mxYeY2luGiE8rqa2tRUpKCiZPniz3Sd5eqPzMR48eBZfLpXch4ikvpN3JUGOQnp6OW7duwc3NDSNGjICWllab3n/KlCl4/fo1ysrKmh3n5ORk/PDDDwqZqE1LSwuLFi2SEJ+WAnX/6xDxaSV1dXX49OmTROpQRUNZWRnu7u4IDQ1FQ4P0GK4vVd5ksVhISkrC1q1bMWLEiC9GuIszevRonDp1ii60J42ysjJERkZixowZCnf0kiY+ZOfTPER8WgmXy8Xnz58VWnxUVFRw5swZ5OXlNemf+PGrucUiEonA5/PBZrORnJyMS5cuYebMma2u1mpkZEQnLGtO3Hg8HiorK7Fp0yb06dNHoSxfjcWnoaFpCSHC/yDi00oU3dqlr6+P8ePH4/Hjx1I9cMW/pTkcTpNk6OLOgVTdsoyMDNy6dQvu7u6wtrZu8f0ZDAa0tLTQt29fXLhwAUVFRVLHmXofKs+zIlm+9PT0sGzZMnLh3EqI+LQSPp+P/Px8uLi4yH2StwcrKyv88MMPSE5ObraPQqEQbDYbaWlpSE9Pp8MuxO8upJVCfvXqFb7//nuYmJigV69eUk3w4qb57du349WrVy3uCqKjo7F7926oqakpzO6nb9++WLt2LTG1txIiPi0gvhtQdPFxcXFBZGRki5e9LBYLiYmJcHd3x4YNG/D69WuUl5fTYyE+LuKX0tTr/vjjD8yfPx9GRkYtio+TkxN8fX1bzHtTVlaGK1eugMlk0uWou3uFCwsLC+zatYs4GbYSIj4tQC2uhoZ/dz6FhYWYPn16t14AjWEwGOjXrx88PT1RVFQEDofT7I4jPT0dfn5+sLa2hrm5OTZu3IibN2/i48ePLYpPfX096urqUFRUhFu3bmHTpk2wsbFB7969pYqPiYkJ3N3dUVpaKhEBLv58Ho+HiIgI+k6JwWDQIiTvMW0OGxsbHD16FHV1dSSVRisg4tNKBAIBSkpKMG/ePIVKHK+srAxnZ2ecP38eDQ2SFi5xhEIhIiIiMHv2bPoCmcFgYPbs2XRoBFWRovGxS/yZPB4PcXFxOHToEOzt7aGrq0u3Q/z+ZsqUKXjz5g3Ky8ulHuvq6+vx6dMnnDlzBjY2NlJTWHQ3HB0d4ePjAw6H0+w4E/4HEZ9WQh0vPD09YWpqKveJ3lpUVFSwY8cOvH79mu6HtEVRXFyMCxcuNKnKYWBgAFtbW3h4eOD58+d0RYrGOx/q75RTYlZWFm7fvo3Vq1dL1IGnnjtixAgcPnwYiYmJaGj4385HXHyqqqqQkJCAOXPm0GLYVs/qrmTevHm4du0aqVzaSoj4tJL6+nrU1tbi4MGDX7TsyBPxDHuampro378/Ll++jMLCwmb9Turr6/HmzRt4eXlJfaaOjg7Mzc2xfv16BAYG4vPnz6itrW0SHNo4Vis/Px8PHjyAu7s7xo0bB319fQlRmzhxIv7880+JxSr+TIFAgOrqauzcuRNmZma0gHUn8REX1RUrViAkJIRUsGglRHzaAJVG1dHRUe6TvqXFQN2N9O3bF9OmTcPLly+b9balFnlAQACmT5/+xefb2dnh5s2bSE1NpfPWiDsoNn4+l8tFaWkpjh8/jkmTJkFPT0+iWoWvry9KS0tbHPdbt27B1dW1W4kOBRVkq6SkhI0bNyIiIkIijSqheYj4tAFFSCAvLj42Njbw8fFBRkYGGhqkO7zxeDyUlZVhzZo1EjuT5tDT08OoUaOwe/duPH36tElohvizxStfZGZm4v79+9iyZQuGDh1KP8/LywuvX79u8XI2MTERhw8f7lYez+J3UNTOZ/fu3YiPj28xUwDhfxDxaQNU6Zx169bJffK3tCiUlZWhpqaGuXPn4t27dxIpTBtD1V5vTcCs+BHD2toamzZtwp07d5Camio1gVbj+l/FxcUIDw/H3r174eDgAA0NDUyePBk+Pj7gcrnNChCLxUJQUBCGDx9OX2DLG2kJ5I8fP468vDxy0dxKiPi0AaFQiISEBOzZs0fuk/9LC8PAwACbNm1qMT9zfX09EhMTcejQIYwYMeKLz2182Ut5TZ8/fx6pqangcrmtWnifP3/G+fPnMWzYMJiYmODrr79GWVlZi3cl79+/h5ubGwYPHiz38ZU2Lmpqajh79ix9IS/vuaoIEPFpAyKRCEVFRfjpp5/kPuFbEgcVFRW4urri5s2bzV4wU9kD//zzT9ja2kr45LQkauLf9FSWwhEjRsDDwwNRUVG06ZyyqklL2VFXV4esrCw8fvwYmzdvxubNmxEeHo6SkpJmxz43Nxc3b97ExIkT5T7OjdHV1cWoUaNw7949cuRqA0R82kB9fT3YbDYuX77cxCTdHaDER1VVFQcPHkR8fHyz/aDqzp85c6bJJXB7GDJkCDZv3ozbt28jLS2NtnxR9z6NBZAK5Xjy5Alu3LiBf/75p9l4r4aGf/MppaWlYfny5V8sXNiV481gMGBsbIxFixYhIiJC7nNUkSDi0w4ePnwIW1tbMJlMuS+AxqioqIDJZOLmzZst1uKqr6/H8+fPsWXLFpm+/9y5cxEQEIDy8nJwOJxmrWAUIpEIFRUViI2Npcs1t8SBAwcwZMgQuXs6i4d7DB06FHv37kVsbKzc56YiQcSnHURHR2PLli0wMzOTu9g0xszMDKtXr0ZUVFSLZXuFQiF8fHw6VK5GWjJ5IyMj2Nvbw9PTE0+fPkVlZWWL5ZKFQiG4XC5YLFazd0biYS7379/HypUru0WFU0oAbWxscPv2beTk5Mh9bioSRHzaQUZGBi5evNjmCp5dwYQJE3Dz5k3k5uY2234Oh4PCwkJs2LCh1bl4mlt81FFP/CJaW1sbZmZmWLduHa5fv47MzEyJYEtxj+iW7oYa/35Dw7/llU+cONHhY6IscXR0xIcPH8BiseQ+NxUJIj7toKysDC9evMCkSZO6leMblZ/58+fPLdaOKi0tRWRkZJfko7a1tcW1a9eQlpYGHo8ntWhgW+BwOLhz5w709PS6xe5HTU0Nc+bMQWlpaYs7TUJTiPi0Ax6Ph/z8fKxYsQIGBgZyXwBKSv9efo4ePZqOqhYIBM3esyQkJGDfvn2wtLTs9HYxmUyMGTMG33//PZ4+fUrfA7XXHC0SifD27Vt888033eLYa2NjgyNHjtDhJvKem4oEEZ92QFm9jh8/DltbW7lOfsr8raKiglWrVuHBgwd0G5vzaP7rr78wceLEThNOaQ54Y8eOhaenJ4KCgpCWltahksK5ubm4ceNGtzC7r1y5Eg8ePCDxXO2AiE874fP5ePLkidy9nVVUVKCqqgpNTU2cPn0aWVlZLba7vLwcZ8+e7XRBlJZ7h8lkwsbGBhcvXkRmZiZ4PF67jl9sNhvZ2dlYvHix3I5elOAfOnQI6enpxL+nHRDxaScikQifP3/G0aNHm0zIrjQDMxgMMJlMWFtb49GjRy2GOdTX1+PZs2fYvHlzl7RL/N/KysrQ0NCgj2FUFY3i4uIm7RT/t7RLaKFQiLq6Ohw9ehSjR4/usns38c9XR0cHQ4cORWBgIKqrq0mJnHZAxKedUEevGzduYMiQIdDW1pZ63OgKLCwssG3bthadCoVCITgcDk6dOoUJEyZ0afso8REXCcoaFhgYiKSkJPB4PKk1xFoqPXPv3j0sXbq0y3Y/4p9v//79sXLlSjx79qxVlT8ITSHi00FevXoFNzc3DBw4sMsXNLUgXFxc8OTJkxbDE3g8HkpLS7Fw4cJuZaZ2cHCAt7c3CgsLwWazJdJzfOlIFh8fj0OHDnV5fxgMBqytrXH58mV8+vSJbg/JXtg2iPi0A/Fv5OzsbNy6dQs2NjZyER4mkwk3Nzfk5eW1eIlbXFyMp0+fwsnJqVu5B+jr68Pa2horVqxAcHAwCgoKmk3R0ZiysjJcvnwZvXr16tI+6ejoYO7cuUhISJAok0PEp20Q8WkH4uJTU1ODlJQULF++XGrVhs5EWVkZtra2+Pnnn1u8vK2vr0dCQgIOHjzYquj1rkZdXR29e/fGihUrEBAQgMTERAmHPWliRCWZf/z4MUaNGgU9Pb0ua+/o0aOxf/9+sFgsiTEnx662QcRHBnA4HCZ7xqcAACAASURBVPzyyy9dbvpVU1PDtm3b8OzZsxbbJxQK8fjxY9jb27cqYZg8sbKywvHjxxEfH0/7KjXOlEjdYYlEIsTExGDVqlVd5vPDYDCwdu1aPHnyhGQs7CBEfGSAQCDAmzdvsHXr1i5bpKqqqmAymbhw4QIKCgqabVt9fT0KCgrg5+cHfX39bheJ3xhdXV2MHDkSGzduxB9//IGKigraM7px1dTa2lo8ePAAVlZWXbLzUVdXh5GREXx8fJCfn0+OWB2EiI8MEIlE9P2DpaVll6R8oMzr9+7dQ2lpKVgsFqqrqyWoqalBVVUVnjx5Ag8PD7kLS2thMBgwNzfHokWL4Ofnh+joaJSXl9PCw+PxUFNTg9evX2Pv3r1dFmpBpc4IDQ0Fn88nR6wOQsSng4gnZo+JicG3334Lc3PzTl8IZmZm+Prrr3Hnzh3ExcUhLi4OSUlJ+PjxowTJyck4cOCA3D2x2yI8jR0Ud+7ciaioKLDZbHA4HFRUVCA1NRW7du3CyJEju+SymcFgwNbWFvfv30deXl6zCfkJrYeIjwygJmBZWRmePXvWJXc/2traMDU1hZ2dHVxcXODi4oLp06djxowZEkyfPh2WlpatylTYXWjsJzVs2DDMnDkTGzduxLZt27BhwwbMnDkTFhYW9K5Hlr5V0lKFmJubw9PTE58/f6atikR4OgYRHxlBlaCpqKjAzp07MXz4cLkv4p6EhoYGDA0NMWDAAPTp04cWm87wKqd2X+Li4+rqilu3bkncP8l7zik6RHxkhHjK0JiYGOzYsUPu2fYIHRMf8SKFp06dQlFRkUTuIXnPOUWHiI+MEDcBV1RU4N69e5g5cyb69Okj98VEaJ8AKSkpYfDgwdi2bRtevnxJ12AnOx/ZQMRHhog7H6alpcHf3x92dnbQ1NSkJ7T4cYHsjLo3ffr0oRPDl5SUfDHWjNA2iPh0EgKBAGVlZVi/fj369esHJSUliTsE6kJT3guM0DzOzs44e/asRC15guwg4tNJ1NfXg8Ph4PHjx3Bzc4OS0v+iohuX2SXIH/GLa21tbZibm+Onn35CSkoKydXTSRDx6UREIhFKS0tx8+ZNTJo0Cfr6+nLJ+UP4svBQXwoMBgODBg2Ch4cHXr58SZwJOxEiPp2EuBNaQUEBHj16BDs7O7kvNEJTKOGh/j1lyhQkJCSgqqqKOBN2IkR8OhFqwtbV1SEvLw+nT5/G1KlT6QnfnVJb/JcRv/xfunQpgoKCwGKx6EwBRHg6ByI+XYRQKERCQgK8vb1hbW0NJpNJxKcbYWBgAEdHR9y6dQulpaWtzilEaD9EfLoQkUiElJQUnDlzBqNGjZL7giP8j4kTJyI8PBzFxcVEcLoIIj5dSH19PVgsFlJSUnDs2DE4ODjIfdERlLBw4UJcu3YNRUVF4HA4RHy6CCI+XYi4F3RMTAxOnDiBsWPHgslkNlkQxBomW6SNp4GBAZycnBAYGEjn5yF3PF0HER85IRKJkJGRgStXrmDs2LFNFoq0uleE9guPtPF0dHTE69ev6VxBxKrVtRDxkSM1NTXIyMjAuXPnMHfuXInFQlnDyKV0xxAfRwaDAS0tLZiamsLDwwP3799HWVkZXW2UCE/XQsRHzgiFQmRlZeHSpUuYPHkyBg4cCC0tLYmFQ3ZA7UNcxJWU/q2U8X//93/YtGkTIiIiUFNTQwRHjhDxkSPU/Q8VCR8bGws3NzeYmppKLCByBGuf8DQet4kTJ+LkyZMoKioCl8slRy05Q8RHzlATn8/ng8ViITIyEj/++CMmT54MAwMDEv3eSqQdUamxMzU1hZubG3777TckJibSCcHEx5/Q9RDx6Wbw+XwkJibCx8cHCxcuxJAhQ5ocvYggNaVxlgA1NTXo6elh9OjR2LBhA/7++28UFhbK/fMl/A8iPt0QoVCI2tpaREVFYffu3dDQ0JD4VhdPzUGQLj5MJhNjx47F+fPnkZmZSR+z5P3ZEv4HEZ9uhniRvPLyckRHR+Ps2bNYs2YNRo8eDSUlsvORhviYODk5Ye/evbh37x7S0tLoGvDkiNW9IOLTzRDPEUwlpa+ursbjx4/x3Xffwd7eHmZmZl8sktcTBYrqk7R+GRoaYsSIEXBycsKvv/6KuLg4uuIpyUDYPSHiowDU19eDy+UiPz8fL1++hJeXF6ytrVtcqD3taEZZr6iqEo3/f8aMGTh9+jRSUlJQUVEBgUAg98+N0DJEfBQIHo+H8vJyvH37FoGBgdizZw9mzJiBQYMGSRWfnpSmVdxnh9r5jBw5EsuWLcPRo0cREhKClJQU1NbWkgRgCgIRHwVBPMUDFaCanJyMgIAAbNy4EXZ2dhg6dCj09fWhpNTz8gVROx9jY2NYWVnBwcEBu3fvxv3795Gfny9RyI+UtlEMiPgoCNQltDgCgQC1tbXIycnB8+fPcejQITg5OcldKDoDVVVV6OnpYenSpQgICEBSUhJKSkpQV1dHOwqSrIOKBREfBaHxzkd8gVHHsbi4OAQHB+PkyZPYsmUL5syZg6FDh0JHR0fu4tGenZi+vj7s7OywYsUKfP/99/D390doaCjS09PBZrOlJnYnwqM4EPHpYYjfC129ehXbtm3D7NmzYWNjA0tLS5iYmEBXV7dbiQ91pNLX18fgwYNhbW0NOzs7LF68GCdOnMCDBw+QkpICDodDdjY9CCI+PQyRSAQ+nw8ul4uamhpUVFQgOTkZjx8/xpkzZ+Dm5vZFS5k8jlS6urpwcXHB999/j7t37yI6OhrZ2dlgsVioq6ujL5HJfU7PgYhPD0LcQVF8d8Bms1FcXIyUlBRERkbijz/+wC+//ILDhw9jx44dWLt2LebMmQN7e3tYWlqCyWTK3FKmo6MDExMTWFtbw8nJCQsXLsSmTZvw3Xff4eTJk7hw4QIePnyId+/eITc3VyKBu7iPDsmr3HMg4tODaOyg2NzvCYVCcDgcFBYWIjExEeHh4fjtt99w8uRJfPvtt1i4cCEcHR1hZ2cHW1tb2NjYYPTo0Rg1ahSsrKykMmrUKIwePRrW1tYYO3Ysxo0bh/Hjx8Pe3h729vaYPXs21qxZgwMHDsDHxwe3b9/GmzdvkJGRgYqKCqntFN/pkN1Oz4OIz38UyjLE4/HA4XBQU1MDFouFiooK5OXlIT09HfHx8Xj37h3Cw8Nx9+5d/P7777hx44ZUfv/9d9y9excPHz7E06dP8ebNG8TGxiIxMREpKSnIyclBSUkJKisrUVVVhdraWnC5XPD5fCIs/1GI+BCaQIkSm81GVVUVysrKkJubi+zsbHz+/Fkq2dnZyM3NRWFhIUpLS8FisVBTU4O6ujpwOBw61EHefSN0H4j4EAgEuUDEhyBTyP0MobUQ8SHIFGKNIrQWIj4EAkEuEPEhEAhygYgPgUCQC50uPuLn/8Z/V+S7AXm1XVbj1lyQandsZ3dtmyLT0TGQxRh2qviIp69s/HcqLURXWUZkaYWRV1pOWY2b+HMoZNkXWbezO7atvXQHa6B4epb2jK14GE9H+tLp4kN1kMfjgcViobi4GCwWq1O/daUNFIfDQXl5ObKzsyXIz88Hi8Vq1zMrKytRUFCAz58/IzMzE0VFReDz+TJdMNR7UX8XF28ej4eqqiqUlpaioKAAeXl5yMvLQ0FBAYqKilBRUYG6ujqpDn7ioQsdbSuLxUJBQQGys7ORmZmJgoICifftyHtQr+NyuSgpKUFeXl6Tz7AlcnJykJ+fj+LiYlRXV9PxYp0x9+rr68Fms5GTk0M7ZH769AllZWV09YzusOsSn0cikYjOC1VRUYGioiLk5eUhNzeXnkuU0yiXy6UFp/H6bU+/ukR8RCIR8vPz8ezZMwQHB+P169dgsVhdkmeXSsJeUlKCqKgoXL16VYKbN28iKiqqzR64QqEQcXFxePDgAa5cuYKLFy8iNDQUVVVV9ASXVfspkeByuaisrERubi6SkpLw+vVr/PPPPwgODpYIffj9998RFBSEhw8fIjIyElFRUYiPj0dmZiby8/NRVlZGpxuVhfgkJyfjzz//xNWrV3Hx4kU8evQIJSUl4HK5MtsllpSUICwsDLdv327yGbbEtWvXcPPmTdy5cwdPnjzBu3fv8OnTJxQXF8u8XLJQKEROTg5u3LiBq1ev4vLly7hw4QKio6NRXl7eLby86+vrUVdXh/LycuTk5CA5ORnR0dEICwvDgwcPcPv2bdy4cQPXr1/HjRs3cOvWLQQHB+Px48d4+fIl3r17h/j4eGRkZCAnJ4cex/bM+U4XH4FAAC6Xi7t372Lq1KkYPnw43NzcEBkZicrKyi4ZcD6fj9jYWBw4cAADBgyQYODAgfDy8kJFRQX4fP4XnyUuBAEBAXB1daWf5e7ujpycHDqlpyzHkcfjITs7G3///TeOHj0KV1dXDBkyBIMHD8agQYNgamqKgQMHYuDAgTA1NYWpqSnMzMxgbm6OoUOHwtHREZs3b8ZPP/2EoKAgfPjwgd6BdnSn9vvvv2PlypUYOHAgBgwYgKVLlyI2NrbNO8qWiI2Nhbu7O2xtbZt8hi1BjcegQYMwePBg2Nvbw8PDAwEBAYiJiZFpvmcej4fQ0FBYWlrS79+/f3/89NNPyMjIkJr8rCuhvgjS0tJw//59HDx4EHPnzsWIESNgbm4OMzMziXnUeOyGDBkCKysrODk5YcOGDdi/fz8CAgLw9u1blJWVtbk9nS4+PB4PGRkZOHz4MPT19aGmpgZra2vs378fGRkZXfJNwOfz8f79e3h5eUkksKKSkU+bNg0PHjxAcXHxF7eP1P9zOBz4+vpiypQp9DOXLFmCrKwssNlsmUyShoYG1NXVIS8vD7///jv27NmDRYsWYdy4cejXr1+TtBXa2tpgMplgMplQU1OT+D89PT0MHz4c9vb2WLx4Mfbt24fExESZ1Cu/cuUKZs2aRb+Xi4sLYmJiZPrl8u7dO6xYsUKijn17U3sMGzYMzs7O8PDwwLlz55CQkAAOhyPx+banjTweDw8fPkTv3r0lEqcdOHAA6enpchUfFouFuLg4nDt3Dl5eXpg/fz5sbGzQp0+fNqVPUVVVBZPJxJAhQzB27FgsWrQIly9fRlpaWpvb1OnWLjabjZCQECxbtozugL6+PhwdHfHixQv6Q+9M+Hw+4uLisGPHDgnxUVFRAYPBgIWFBTw9PREbGytxJ9DSM7lcLs6fP4/p06fTz/zqq6/w+fNnmYiPUCgEn89HRkYGbt68iTlz5sDIyAhKSv9WptDV1cXAgQMxdOhQjBgxAqNHj4ajoyOmT5+OGTNmYNy4cRg5ciQsLS1hbm6OAQMGwMjICBoaGtDX18e4cePw9OlTiTN8e9v722+/Yc6cOfQ4TJs2DR8+fJCp+MTExOCbb76BmZkZ/T5MJhNmZmYYNWpUs4wcORLDhw/HsGHDMGDAADCZTLr6BVXV1M/PDxkZGR1O38Hj8fDo0SMYGRlJLOiDBw/KbedD7dLfvn2LkydPYsyYMRI137S1tWFkZAQzMzMMGzYMI0aMwMiRIyXSpYwYMQKWlpawsLCAubk5TE1NYWJiAiaTCQsLC+zfvx8xMTFtbluni09lZSV27tyJESNG0B1WUVGBiYkJrly5gtzc3E7/AKSJDyVASkpK0NDQgKmpKW7evImSkpJWZczrTPFpaPhXgEpLS3Hp0iUMGjQIenp6UFVVBYPBAJPJhIODA44dO4Zbt24hPDwc79+/R0JCApKSkpCUlIQPHz7g1atXCA0NxW+//YajR49i3bp1MDc3h4GBAS0+sribkpf4zJ07F76+vvjw4QNiYmLw9u3bJjx79gyPHz/G3bt3cfjwYcyePRuqqqr0PNTS0sK0adNw9uxZieRl7WljdxSfuro6ZGVlYfv27ejXrx+0tLQk2jZq1CisWbMGvr6+CA4ORkREBF69eoWoqChER0fj9evXiIyMxD///IOQkBBcuXIF3t7e2LNnD+bMmYPJkyfj4MGD3U98qqurERsbi9mzZ4PJZEosfF1dXWzfvh3Pnj3r9A9AmvhQOwdNTU0oKSlBS0sLmzdvRnh4OBoavrz97mzxEQgE+Oeff7Bu3Tr6+ZqamjA2NsbatWtx5coVxMbGIicnh7ZEcLlc8Hg88Pl8OkdPRUUFsrKy8OHDB4SGhsLX1xeHDh3Cjz/+iOTkZJmYfuUlPqtXr8ajR4/A4XDA5XJRV1fXBColSEFBAd6/f4+rV69i6dKlEse3fv36wc3NDbm5uairq+vQsau7iA81f/Pz83Hp0iU4OjpKXDUYGRlhwYIF8Pb2xpMnT/Dx40cUFhbSqVDYbDbq6upQW1uLqqoqVFRUoLi4GJmZmYiPj8ebN29w79493LhxA5GRkcjPz+9e1q6srCxcv34dVlZW9LeMkZERmEwmNDQ04ODggPPnz3d6kTdp4jNo0CDMnj0b5ubm0NHRgaqqKmxsbHDq1KlmKyOI09nHrrq6Ohw+fFgi37KxsTFmzpyJf/75BzU1NU1e1xoh4fF4KCsrw8ePH8FisWRibpeX+Kxfvx5Pnjxp06IuKirCw4cP4eLiInEv4+joiKioqGazKraG7iI+4jv3uLg4LFmyBAMHDqSvGjQ1NTF+/Hjcvn0bOTk5MnuvbmXtevHiBdzd3dG/f3/o6elh5MiR8PDwwKxZs8BgMNCrVy94enqioKBApmbZxkgTn/Hjx+PYsWPYuHEjbG1twWAwoK2tjRUrViA+Ph7V1dUtPrMzxYfH46G4uBiLFi2ClpYW/fwJEyYgMDAQnz9/bvduhbJAUpUgZDG+iiQ+XC4XxcXFWL16tcTY2tnZ4dGjRygoKOjQ59YdxEe8r6GhoTAzM4O6ujp91TBkyBBs2rQJOTk54PF4XdomcWQqPuKOS9XV1bh8+TKsrKygo6MDCwsLbNiwAXfv3pUQgVmzZuHRo0coLS3tFI/Whgbp4jNx4kT4+vri6tWrWL9+Pf1zGxsbnDx58ouWuM4UHzabjczMTIlnKyn9W4/85cuXKC8vl9uEkYYiiY9IJAKPx8P27dthYGBA3/vZ2tri/v37yMvLa3cbu6P4/P333zA2NpbY5VlbW+PgwYMydYVoDzIVH2rXwufzkZ6ejj179tAddnZ2RmBgILKzs3Hu3Dn07t0bampqsLKywq5du5Camiozj9vGSBMfOzs7+Pj4ICYmBj4+PrQbgKGhIRwdHfH06dMWRaQzxaempgapqalwcXGREJ+ZM2fi1atXHToadAaKJj4cDgc7duyAsbExLT52dnb4888/UVhY2O42djfx4fP5iIiIgKWlpcQuz9raGj/88AMqKyvl6vTYKccuNpuN4OBgLFmyhO7w8uXLkZiYiOrqaoSGhmL58uXo27cvtLS0MGLECISHh4PL5XbahyDt2OXj44OMjAyEh4dj5cqVMDExgaqqKoyMjPDzzz8jOTm52Wd2pvhwOBzk5uZixowZEuIzfvx4nD9/HllZWXKbMNJQJPGh/KaWL18u4Qvl5OREO162t43dTXzq6+sRHx+PlStXSoxb7969sWjRImRnZ7fKsbazkLn4iEQiFBcXw8vLC5aWllBVVcXgwYPpbZ5AIEBqair8/f1haWkJJaV//X4uXLiA7OzsTulkS+JDJUC/fv06fbmrrq6OefPmITAwsNnL8M4UH6FQCBaLBU9PTwwYMIA+q/fv3x+zZ8/Gb7/9ho8fP6K2tlbuXrMNDfITn40bNyIsLKzVY1BbW4u4uDicPn0a//d//0c/Z+DAgfDw8EBhYSE4HE6PsnYVFRXhjz/+wJw5c6ClpUVXhx01ahR++eUXvHnzBhUVFa2+7pBlbJrMxYfNZiMhIQETJkyAsrIytLW14erqiqCgIPp3WCwWoqOj4eTkBA0NDejq6mLbtm2IjIzslA/iS+LD4XCQlZWFhQsXQldXF8rKyjA0NMSWLVtQXFwsdUfW2aZ2Pp+PgIAAevdDlRtWUVHBokWL4Ofnhzdv3iAtLQ0FBQV0WZrq6mrU1dWBx+N12WSXl/isWbMGISEhKCkpQVlZmVRKSkroYMl3797hzJkzsLGxoY/9TCYTrq6uuHr1ao/x8xE33PD5fFRUVODHH3/EmDFjYGRkBC0tLTCZTFhbW+PAgQN4+vQp0tPTkZeXh+LiYpSUlKC0tFRiHMvLy1FVVUUHyMqinTIXn8zMTFy7dg0jR46EktK/XqRHjx5FbGws/TtCoRBFRUXYtm0bLCwsoK6uDltbW/j5+XWptYsSH5FIhJqaGly5coVeRKqqqpg+fTqCg4NRVFTUxBLX2eIjEomQkpKCH374gd75UH/q6+vDzMwMo0ePxsKFC+Hl5YUTJ04gMDAQT548QVxcHDIzM1FeXt4lqT/kJT729vbYvHkzzpw5Ax8fH6l4e3tj//79WL9+PZycnGBmZka7VvTv3x/Lli3DnTt3kJeXB4FA0KE0Ed1FfBoaJNNeCAQCpKWlISgoCB4eHrC2tkavXr3Qq1cv9O/fHzY2Nli8eDG2bduGI0eOwNvbG7/++it8fHzg5+eHM2fOICAgAH/99ZdMTycyt3Y9e/YMGzduhImJCbS1tTFy5EgEBwejrKxMIgy/traWnrTKysowMDDA1q1bkZOTI/OQi+YunM+cOYPPnz+joeFfp76kpCTs3bsXGhoaUFZWxqBBg7By5UpER0eDx+NJLOLOEp/GFsPw8HB4eHjAyckJ/fv3l7gDYjAY6NOnD0aMGEFXBV2+fDk8PDzg5eWFffv24eTJk7hz5w6ioqKQnZ2N2traDqVBkIa8xMfY2BijR4/G5MmT4eTkBEdHxyZMmDAB1tbWGDx4MHr16gV1dXXo6+tj4sSJ2L59O0JCQui7j47m+elO4tP48+VyucjPz0dYWBhOnDiBRYsWwdLSEnp6elBXV0ffvn1haWmJcePGYcKECXBwcICTkxOmTJkCJycnuLq64sSJExKbiI4iM/Ghgi2vXbuGMWPGoFevXjA0NISzszOioqKafLg8Hg+xsbHw8vKiwwbmzJmDx48ftytCtiWaEx8/Pz9ayakg2Js3b2LIkCHQ1tamQxkCAwNRWloq8czOEp/GiZ5qa2uRlZUFPz8/LF68GIMGDYKxsTH09fWho6MDdXV1CTNqY3FSU1PD1KlT8d133+HGjRt4//49fZQUCAQKHV6hpqYGbW1t6OrqtoiOjg40NTWhoqICbW1tDB48GJs2bUJQUBA+f/5M14XvaeLTeA1UVVUhPz8f4eHh8Pb2xowZM2BiYkK3U11dHTo6OtDV1YWenh4dpKynpwcLCwts3boVr169klmbZCY+lHl937590NHRoYMfra2tcfv2bRQWFkrsfAQCASoqKnDmzBn07dsX6urqGDNmDPbt24eMjAyJxdjRb+fWiE9Dw78CFBcXh6NHj8LCwgJKSv+GXXh6eiIsLEzimZ3t4Sye6Imqqx4bG4uQkBB4e3tj48aNcHZ2hrm5OXR1daWKDyVATCYTAwYMgIWFBWbPno3jx48jNTX1i46UrUVe4mNqagp7e3vMmzcP8+fPl8qcOXPg7OwMa2trOtqcClOxsbHB8uXLERQUhLy8vB4TWCrN6zg7Oxv379/Hhg0b4ODgADMzMzCZTNr5UElJCYMHD4aTkxPmzp2LhQsX4quvvsLy5cuxaNEirF69Gj4+PkhISJBZO2UmPrW1tbh37x4WL14soaR9+vTBV199hXPnziExMZFO4ERFbT969Ahz5syBoaEhvVOKjIykc+LI4mjQFvEpKyvD69evMXfuXDCZTKiqqsLa2hrHjx+XSIDW2Xc+0vrO5XJRXl6OhIQEhIaG4vr16zh16hT27NkDDw8PuLm5YenSpZg5cyZsbW1hampKx/JQbdTX14ednR28vLzw/PlzmTiayUt8pk2bhoMHD+L27du4c+eOVG7fvo3r16/j/Pnz2L9/P1avXo3Jkyejb9++0NTURL9+/eDq6oozZ84gJycHbDZb4a1d4kn8qqurkZSUBF9fXyxatAiDBw+Gjo4ONDQ0YGJigsmTJ2P16tXw8vLCqVOncO3aNQQFBSE4OBghISF4+PAhgoOD8fDhQ7x9+5ZOOyOLdspEfEQiEUpKSvDdd99h1KhRYDAY0NTUhJaWFn1/Ym9vj19++QXx8fGoqqqis7olJibC29sbw4YNoxfH5cuXO+Rp2pjWHruoI091dTW+//57WFlZ0b/v6upKt50Sgs4Wn9ZMMio9LZWV7vnz5/j9999x7NgxLF++HObm5ujbty90dHQkdkQqKio4dOiQTL7J5CU+Hh4eCA8Pb/Wirq6uRnx8PM6fP4+pU6eiV69ePdLDWXzXnJmZCR8fH9jb20tsCgYOHAhXV1ecP3+eDidqTWZRWeaglon41NTUIC4uDtOmTaPvIcaOHYsJEyZg9OjR6NWrF3R1dWFpaQl3d3eEhITQPioVFRV48eIFxo0bByUlJfTq1Qtbtmyho8tlwZfER9ySRS3o0NBQiYhyGxsb/PTTT/j06RMaGuQrPuJbaoFAAD6fDy6XCzabDRaLhdLSUuTm5iIhIQFPnz7F8ePHm5jsGQwGJk6cCB8fnw63R17is2HDBoSGhn5xUTfOVVxYWIjz589jzpw5dHoNY2NjzJ8/H2FhYQp/7KL6XFZWhvv378Pa2lriaG5hYQF3d3dERUWhoKCAXovi80p8dyOe3K5biI/4kSAzMxNXr16lc/bo6urCw8MDv/76K37++WfMmjUL/fv3h5qaGoYNG4avv/4aFy9eREpKCiorK5GTk4NVq1ahX79+UFdXh42NDXx8fGSWC7m14kP9vkgkQkFBAXx9fWFqagotLS306dMHLi4u+Oeff2h/h3PnzkmEQHSV+DQ+0ze3DRYKhbRjnY+PDyZNmgRDQ0P6297Q0BAbN25EeXl5hwIMFcHDufE4xcTE0JZNJaV/05WYmJjg0qVL7Q476E7i09DQgPj4eBw7dkwieZiS0r8ZN+/doG5n4wAADUlJREFUuydh+Ww8rxr/XNYW0oaGDooPpZYRERFYu3Yt+vXrRycKu3btGnJzc8FisRAQEIAFCxbQjl29evWClZUV/P39kZSUhJKSEvj4+GDy5Mn0AK1duxalpaUyibpt7Z1PYyIiIrBo0SIYGxtDSenfrG/e3t74+PEjOBwO/Pz84OzsLLdjV1v4+PEjfv75Z4wePVpiIs6ePRsJCQkduvtRBPFpTFlZGa5cuSIR80QJRXp6eru+9Lqb+Dx+/Bjr1q1rcuQ+cuQICgsL5e4d36Fjl0gkQm1tLc6ePQtjY2Ooq6vTl8YvX74Eh8OBQCBAYWEh/vrrL3z77bcwNTWFiooKnUt38+bNCAsLw9OnT7F161Z6gObPn4/IyEiZBFG2V3xyc3Nx9+5d2NjY0Kbd2bNn49q1awonPqWlpYiMjISTk5PERHRxccHLly875N6giOJTVVWFmzdvNhGfHTt24N27d+16ZncTn5CQEKxcuRLa2toSffT29kZVVZXc64d1SHz4fD4+fvyInTt30h2ztramzeXi27eSkhI8e/YMe/bswYQJE6CtrQ0VFRVYWlpi48aN8PPzw6ZNm2BoaEgnmf/hhx8kzO4daWd7xKeurg6fPn3CunXrMGDAACgrK2PgwIHYsWMHPn/+DB8fH0ybNk0hxIfFYiE+Pr5JpLyLiwueP3/+nxMfFouF69evNxGf7du3Izo6useIz4oVK5qIz4kTJ1BRUaHY4lNbW4vg4GB89dVXUFL616dkwYIFePLkCSoqKpqEJAgEAmRlZeH06dMYNWoUncZCU1MTM2fOxOzZs2FpaQkdHR0wmUzY2dnh1atXHa7v1V7xaWj4N8L80qVLmDlzJv3amTNn4tGjRzh58qTEzzvDz0dWE6S8vBxRUVES1TaUlJQwffp0REdHd2iHqYjik5+fD39/fzqNLsWuXbsQGxvbI8Tn8ePHWLt2bZNj13fffYf09PQuqZvXEh268ykrK8OuXbswcuRIMBgM2iGvsLCQvqtpfHFVV1eHzMxM/Pnnn1izZg2GDRsGZWVl6Ovrw8DAgN4Rqaqq0ndH+fn5HepkR8RHIBAgMTFRIjfR8OHDsWHDBmzevFnmF87ijoUsFgu1tbVf/H1qjJuzUtTX1yMlJQXe3t4YNWqUxERcsGABsrOzO9RmRREfccPCixcv4OXlJeFkp6SkhGPHjiE7O7vddz4PHz6Evr6+hNe5uPg0Nm58qa3SaG17EhIScOLECTCZTNrKqaSkhKlTp8Lf379FJ9PWtrMjtFt8qqur8eHDBzo5vIaGBmxsbHDmzJkv5mQWCASorKzEw4cPsWvXLtjZ2TVJME9Zzb799lu8fPmyQ51sr/hQH0BVVRV+//13jB8/nnY5HzFiBMaPH0/7J8lKfChTf2VlJW7duoVz587hyZMnSExMRFFRUZP80i1ZIoRCIdhsNlJTU3Hx4kU4OzujT58+YDAYYDAYMDc3x+7du1vt49EciiI+1LxLTk7G4cOHYWdnR+9QdHR0MGTIEFy7dg1VVVXttnZJq9t15MgRZGdn0+LT2md3VHzKysrw4MED2Nvbw8DAgG5T//794erqips3byIuLg5lZWVNLMsttZOKUKiqqkJOTg7evn2LlJQUlJSUtGl3127xycrKQmBgIG1e19PTw5YtWxAREdGqBUbF0cTHx+PUqVOwsbFpcjbV0NCAs7MzLl261KH0qh0RH+p9ExMTceLECQwfPryJSMr62MXlclFQUICZM2fC1NQUS5Yswc8//4y//voLiYmJKCgoAIvFQnV1tUSlgbq6OrDZbNTU1KCqqgpFRUVITk7GuXPnsGDBAigp/evno6amBi0tLaxcuRLBwcEdFgZ5Vq948OABXXFBGtXV1aiqqqLryUdFRcHHx4f2K6PGxNTUFN98802HYpeaE59Dhw4hLS2N/syqqqq+SHV1NQ31s/bk3c7IyMC+ffvwf//3f9DQ0JCoWTZp0iQcPXoU4eHh+PTpE0pKSiTmVeNxrK6uBovFQklJCbKzs/Hu3TsEBQVhz549uHjxIt6/f9+mhIDtFp/IyEisW7eOrpxpaGiICxcu0FHizfmfiAdOCoVCVFVV0YXxxEMzqEnRu3dvbNu2DUVFRe3OdCgL8amsrER0dDQmTZrUpeKjqamJPn36YNiwYbC2tsbEiRPxzTffYN++ffD19UVgYCDu3r2Lhw8f0q7wgYGB+OWXX7Bp0yZMmDABlpaWdMFBBoMBAwMD2Nvb48aNGx0+0spTfCZPnoydO3ciICAAFy9elMqFCxfg4+ODH3/8EatWrYKjoyMsLCwkfF90dXUxa9YshIeHo6SkRObiM2fOHBw5cgT+/v44e/YsfH19v4ifnx/OnTsn8fvv379vVbIz8eN2TU0NkpOTcfToUdjZ2dHHTPHKo3Z2dpg3bx62bt2KkydPwt/fH1euXMH169dx/fp1XLlyBRcuXICfnx9++OEHrF27FlOmTMH48eMxevRomJmZYdeuXYiOjm5TRoo2iw91DLl48SKdHJ7JZGL8+PEICwuj7yia27ZJO8vy+Xzk5ubi1q1bWLZsGUaOHCkxOb766ivExcW1OxDyS/l8vvQhNjT8u2UvKyvDzp076QyMjZFVuWQ+n4/S0lJs2bIFFhYWtH8UJR79+vXDmDFj4OzsjLlz52Lx4sVYsWIFVqxYga+++grz5s2Dg4MDzM3N6bapqqrSgb6rV6+Gv78/0tLS6DCXjrT36tWrEuWSG4uPLJzSYmJisHLlSgwaNIh+H1NTU4wfPx4zZszAzJkzpTJ9+nRMnjwZtra2tBMr9XoqodaqVatw8eJFVFRUdCitKJfLRUhIiERVVCUlJZiZmcHe3h4uLi6YOnUqpkyZ8kWcnZ2b/P7t27fp2MjWrFNqDfL5fERFReH06dNYtmwZPRbUkZMKAh86dCjs7e0xdepUzJ49G/PmzcO8efMwe/ZsTJ8+nQ7Q7d+/P+0ZTuHp6YmYmJjO3fnw+XxkZmbiwIED6NWrF3R0dDBmzBhs3bq1XfWaxXcX1dXVSExMxI4dOzB27Fj6+YsXL8azZ8/a/U1Kic+uXbugrq4OdXV1TJgwAadPn25RfKQ9JywsDO7u7vj/9s7mJZ0tjOO7UhF+qK3aBP0DLaQgF8FASJQQBCXYohcU3FlQRG2ioEW1cDFmWgqJiDBYaRgEmoUVpEOZFYSLtDdIclGY8Vt+7+Iyg9b1po5d7+XO4oOIcOY5zznncZ7z8j0CgQD19fUsdXV16O/vr5qMKrMPRafTob29HU1NTZBKpazEgVgshkgkglAo/GKLQCCASCRi5RGYU+0tLS2YmZlBMBgsmH+oxl3tXV1drB+USiVOT0+RTqerUv7v33/e1a5Wq9Hc3FxQ11Jgzhnm+0MqlUIul2N6ehrhcJjTZYEMr6+voCgKMpmsbBtLYXl5GS8vLxXbySiILiwsoKenB42NjZBIJPj16xcrPVKsPwmFQohEIojFYlZuQyKRQCaToaGhAVNTUzg/Py9rU/C3wefzcnk2m0U8Hsf6+jq0Wi1GRkYwOzsLr9dbcKVLOVIYzDOy2SwymQxisRhsNhtGR0cxODgIo9HIKe1idKOXlpYgl8shl8uh0WjYlbTPdSzGx8cH7u7uYLfbQRBEgYhVW1sbJiYmkEqlOAvhM3pHyWQSZ2dnODw8xPb2NptOTU5OQqfTQa1WQ6VSgSAIKBQKKBQKdHR0QKlUoq+vD8PDwxgbG8Pi4iKcTidCoRCur68Ljg9UIzi43W7o9XooFAq0trZCr9cXSHZU482HpmkYDAaoVCpW6KpUCIKASqWCRqMpUH3c29vD1dUV0uk0O5fCZZXn7e0NgUAAnZ2dbHuUY+d3OJ3OL0ciyh0H6XQaNzc3OD4+xtbWFlZXVzE/Pw+DwYChoSH09vayb4uM/QRBoLu7GwMDA9BqtRgfH8fc3BxIkoTL5YLf78fl5SUymUxZvis5+DDfc7kcUqkUIpEI/H4/fD4fjo6OkEwm2Xy01MH8V89hBkMikcDOzg42NzcRiUSQzWYr7hS5XA4PDw8IBoNs/ux0OnFycsL+O5da9vv7O2KxGCwWC8xmM1ZWVmAymWA0GuHz+TivHOUHBCYtZVat7u/vcXFxgXA4jN3dXVAUBYfDAavVCpIkQZIkzGYz7HY73G43fD4fQqEQ4vE4np6eCoJM/idXzSSapkFRFEiShNFoBEVReHx85CTG/tkfqVQKHo8HNpsNJEn+7TzPZywWCxwOBzweDwKBAGiaLtDmzteZ4uILZh8bM0dSrp3fEY1GvyhqVgrTp25vb0HTNPb39+H1euFyubC2tsbOl5lMJlitVmxsbICiKPj9fhwcHCAajSKRSOD5+bni1L3q93blq/BVOui4qMkVK7OYPdXcyFct8v3AxZ/F/FCtVKiU/lAN3/50G3Htt/9XuLbLj9xYyqUBq3lqNr/MSn6rJfm+rJaNnzcg/lN1+LeUU4qva93u/zW4+OxH72rn4eHhKQYffHh4eGoCH3x4eHhqAh98eHh4agIffHh4eGrCH/5kh7GE1aqvAAAAAElFTkSuQmCC;" parent="1" vertex="1">
          <mxGeometry x="281.43" y="140" width="73.21" height="50" as="geometry" />
        </mxCell>
        <mxCell id="-C5w6Y-mffG2xFxrbDee-31" value="CI-CD Pipe Line DEMO" style="text;strokeColor=none;fillColor=none;html=1;fontSize=24;fontStyle=1;verticalAlign=middle;align=center;labelBackgroundColor=#3333FF;" parent="1" vertex="1">
          <mxGeometry x="320" y="50" width="100" height="30" as="geometry" />
        </mxCell>
      </root>
    </mxGraphModel>
  </diagram>
</mxfile>
